# xmcd
#
# Track frame offsets:
# 150
# 23331
# 38158
# 51842
# 71906
# 101976
# 113461
# 133575
# 148700
# 159504
#
# Disc length: 2452 seconds
#
#
# Revision: 0
# Processed by: cddbd v1.5.2PL0 Copyright (c) Steve Scherf et al.
# Submitted via: FreeRIP 2.944 
#
DISCID=8509920a
DTITLE=Live Worship - From Christ Chapel Zebulon
DYEAR=1900
DGENRE=Country Gospel
TTITLE0=01. Friend Of God
TTITLE1=02. Trading My Sorrows
TTITLE2=03. Show Your Power
TTITLE3=04. God Of Wonders
TTITLE4=05. You Are My King
TTITLE5=06. Arms Of Love
TTITLE6=07. Here I Go Again
TTITLE7=08. Forever
TTITLE8=09. Ends Of The Earth
TTITLE9=10. Fill This House
EXTD=
EXTT0=
EXTT1=
EXTT2=
EXTT3=
EXTT4=
EXTT5=
EXTT6=
EXTT7=
EXTT8=
EXTT9=
PLAYORDER=
